HIERARCHY
ROOT hip
{
  OFFSET 0 0 0
  CHANNELS 6 Xposition Yposition Zposition Zrotation Yrotation Xrotation
  JOINT abdomen
  {
    OFFSET 0 20.6881 -0.73152
    CHANNELS 3 Zrotation Xrotation Yrotation
    JOINT chest
    {
      OFFSET 0 11.7043 -0.48768
      CHANNELS 3 Zrotation Xrotation Yrotation
      JOINT neck
      {
        OFFSET 0 22.1894 -2.19456
        CHANNELS 3 Zrotation Xrotation Yrotation
        JOINT head
        {
          OFFSET -0.24384 7.07133 1.2192
          CHANNELS 3 Zrotation Xrotation Yrotation
          JOINT leftEye
          {
            OFFSET 4.14528 8.04674 8.04672
            CHANNELS 3 Zrotation Xrotation Yrotation
            End Site
            {
              OFFSET 1 0 0
            }
          }
          JOINT rightEye
          {
            OFFSET -3.6576 8.04674 8.04672
            CHANNELS 3 Zrotation Xrotation Yrotation
            End Site
            {
              OFFSET 1 0 0
            }
          }
        }
      }
      JOINT rCollar
      {
        OFFSET -2.68224 19.2634 -4.8768
        CHANNELS 3 Zrotation Xrotation Yrotation
        JOINT rShldr
        {
          OFFSET -8.77824 -1.95073 1.46304
          CHANNELS 3 Zrotation Xrotation Yrotation
          JOINT rForeArm
          {
            OFFSET -28.1742 -1.7115 0.48768
            CHANNELS 3 Zrotation Xrotation Yrotation
            JOINT rHand
            {
              OFFSET -22.5879 0.773209 7.07136
              CHANNELS 3 Zrotation Xrotation Yrotation
              JOINT rThumb1
              {
                OFFSET -1.2192 -0.487915 3.41376
                CHANNELS 3 Zrotation Xrotation Yrotation
                JOINT rThumb2
                {
                  OFFSET -3.37035 -0.52449 3.41376
                  CHANNELS 3 Zrotation Xrotation Yrotation
                  End Site
                  {
                    OFFSET -1.78271 -1.18214 1.43049
                  }
                }
              }
              JOINT rIndex1
              {
                OFFSET -7.75947 0.938293 5.60832
                CHANNELS 3 Zrotation Xrotation Yrotation
                JOINT rIndex2
                {
                  OFFSET -2.54057 -0.884171 1.56538
                  CHANNELS 3 Zrotation Xrotation Yrotation
                  End Site
                  {
                    OFFSET -1.62519 -0.234802 1.16502
                  }
                }
              }
              JOINT rMid1
              {
                OFFSET -8.24714 1.18213 3.41376
                CHANNELS 3 Zrotation Xrotation Yrotation
                JOINT rMid2
                {
                  OFFSET -3.10165 -0.590103 1.0647
                  CHANNELS 3 Zrotation Xrotation Yrotation
                  End Site
                  {
                    OFFSET -2.48547 -0.328903 0.83742
                  }
                }
              }
              JOINT rRing1
              {
                OFFSET -8.82822 0.546677 1.51678
                CHANNELS 3 Zrotation Xrotation Yrotation
                JOINT rRing2
                {
                  OFFSET -2.60934 -0.819778 -0.0198488
                  CHANNELS 3 Zrotation Xrotation Yrotation
                  End Site
                  {
                    OFFSET -2.33842 -0.294052 0.168128
                  }
                }
              }
              JOINT rPinky1
              {
                OFFSET -8.27202 -0.0477905 -0.4584
                CHANNELS 3 Zrotation Xrotation Yrotation
                JOINT rPinky2
                {
                  OFFSET -1.82734 -0.647385 -0.700984
                  CHANNELS 3 Zrotation Xrotation Yrotation
                  End Site
                  {
                    OFFSET -1.69225 -0.51767 -0.607171
                  }
                }
              }
            }
          }
        }
      }
      JOINT lCollar
      {
        OFFSET 2.68224 19.2634 -4.8768
        CHANNELS 3 Zrotation Xrotation Yrotation
        JOINT lShldr
        {
          OFFSET 8.77824 -1.95073 1.46304
          CHANNELS 3 Zrotation Xrotation Yrotation
          JOINT lForeArm
          {
            OFFSET 28.1742 -1.7115 0.48768
            CHANNELS 3 Zrotation Xrotation Yrotation
            JOINT lHand
            {
              OFFSET 22.5879 0.773209 7.07136
              CHANNELS 3 Zrotation Xrotation Yrotation
              JOINT lThumb1
              {
                OFFSET 1.2192 -0.487915 3.41376
                CHANNELS 3 Zrotation Xrotation Yrotation
                JOINT lThumb2
                {
                  OFFSET 3.37035 -0.52449 3.41376
                  CHANNELS 3 Zrotation Xrotation Yrotation
                  End Site
                  {
                    OFFSET 1.78271 -1.18214 1.43049
                  }
                }
              }
              JOINT lIndex1
              {
                OFFSET 7.75947 0.938293 5.60832
                CHANNELS 3 Zrotation Xrotation Yrotation
                JOINT lIndex2
                {
                  OFFSET 2.54057 -0.884171 1.56538
                  CHANNELS 3 Zrotation Xrotation Yrotation
                  End Site
                  {
                    OFFSET 1.62519 -0.234802 1.16502
                  }
                }
              }
              JOINT lMid1
              {
                OFFSET 8.24714 1.18213 3.41376
                CHANNELS 3 Zrotation Xrotation Yrotation
                JOINT lMid2
                {
                  OFFSET 3.10165 -0.590103 1.0647
                  CHANNELS 3 Zrotation Xrotation Yrotation
                  End Site
                  {
                    OFFSET 2.48547 -0.328903 0.83742
                  }
                }
              }
              JOINT lRing1
              {
                OFFSET 8.82822 0.546677 1.51678
                CHANNELS 3 Zrotation Xrotation Yrotation
                JOINT lRing2
                {
                  OFFSET 2.60934 -0.819778 -0.0198488
                  CHANNELS 3 Zrotation Xrotation Yrotation
                  End Site
                  {
                    OFFSET 2.33842 -0.294052 0.168128
                  }
                }
              }
              JOINT lPinky1
              {
                OFFSET 8.27202 -0.0477905 -0.4584
                CHANNELS 3 Zrotation Xrotation Yrotation
                JOINT lPinky2
                {
                  OFFSET 1.82734 -0.647385 -0.700984
                  CHANNELS 3 Zrotation Xrotation Yrotation
                  End Site
                  {
                    OFFSET 1.69225 -0.51767 -0.607171
                  }
                }
              }
            }
          }
        }
      }
    }
  }
  JOINT rButtock
  {
    OFFSET -8.77824 4.35084 1.2192
    CHANNELS 3 Zrotation Xrotation Yrotation
    JOINT rThigh
    {
      OFFSET 0 -1.70687 -2.19456
      CHANNELS 3 Zrotation Xrotation Yrotation
      JOINT rShin
      {
        OFFSET 0 -36.8199 0.73152
        CHANNELS 3 Zrotation Xrotation Yrotation
        JOINT rFoot
        {
          OFFSET 0.73152 -45.1104 -5.12064
          CHANNELS 3 Zrotation Xrotation Yrotation
          End Site
          {
            OFFSET -1.1221 -3.69964 12.103
          }
        }
      }
    }
  }
  JOINT lButtock
  {
    OFFSET 8.77824 4.35084 1.2192
    CHANNELS 3 Zrotation Xrotation Yrotation
    JOINT lThigh
    {
      OFFSET 0 -1.70687 -2.19456
      CHANNELS 3 Zrotation Xrotation Yrotation
      JOINT lShin
      {
        OFFSET 0 -36.8199 0.73152
        CHANNELS 3 Zrotation Xrotation Yrotation
        JOINT lFoot
        {
          OFFSET -0.73152 -45.1104 -5.12064
          CHANNELS 3 Zrotation Xrotation Yrotation
          End Site
          {
            OFFSET 1.1221 -3.69964 12.103
          }
        }
      }
    }
  }
}
MOTION
Frames:	8
Frame Time:	0.03333
0.0 0.0 0.0 0.0 0.0 0.0 0.0 0.0 0.0 0.0 0.0 0.0 0.0 0.0 0.0 0.0 0.0 0.0 0.0 0.0 0.0 0.0 0.0 0.0 0.0 0.0 0.0 0.0 0.0 0.0 0.0 0.0 0.0 0.0 0.0 0.0 0.0 0.0 0.0 0.0 0.0 0.0 0.0 0.0 0.0 0.0 0.0 0.0 0.0 0.0 0.0 0.0 0.0 0.0 0.0 0.0 0.0 0.0 0.0 0.0 0.0 0.0 0.0 0.0 0.0 0.0 0.0 0.0 0.0 0.0 0.0 0.0 0.0 0.0 0.0 0.0 0.0 0.0 0.0 0.0 0.0 0.0 0.0 0.0 0.0 0.0 0.0 0.0 0.0 0.0 0.0 0.0 0.0 0.0 0.0 0.0 0.0 0.0 0.0 0.0 0.0 0.0 0.0 0.0 0.0 0.0 0.0 0.0 0.0 0.0 0.0 0.0 0.0 0.0 0.0 0.0 0.0 0.0 0.0 0.0 0.0 0.0 0.0 0.0 0.0 0.0 0.0 0.0 0.0 0.0 0.0 0.0
0.0305 67.7064 -0.05550000000000001 -179.55925 42.403631 179.418276 0.330402 3.631397 -0.0 -1.54666 7.65557 8.11768 6.642188 -13.569342 67.767157 -17.680427 47.241649 -156.545424 171.558947 3.653578 -46.747778 157.993168 -7.194751 35.834988 -89.21062 -37.163281 166.275519 27.107361 -69.822382 17.560075 -1.644373 -3.505124 173.739677 168.662921 -17.209981 141.318492 100.129388 -71.044439 56.410936 -131.231029 29.29853 43.479788 -59.417814 38.420335 37.307774 110.567649 -65.836195 42.615078 -167.116851 -21.06561 159.331551 -59.96379 -83.360779 -102.240229 78.283882 36.908075 -36.101912 -89.81826 3.546594 -97.542313 -179.347701 30.617699 2.992522 -150.14352 -17.651305 -82.338332 89.032075 -43.982111 -165.339569 159.449016 9.947673 -172.07923 50.325733 -82.131285 -96.588821 -19.804755 -37.833328 -6.254498 16.092687 19.818773 16.82497 -30.161594 -0.917792 154.63381 144.146062 -3.774287 -140.691821 159.871774 -76.025849 -33.845464 173.874544 -34.014426 -178.28383 152.487084 10.190216 166.727395 19.251797 52.724775 157.606483 -45.600232 26.316938 0.772584 -40.513509 -3.314197 136.189947 74.560026 -77.060363 134.023698 0.940883 -47.196095 -0.0 -1.75439 46.750669 35.536464 5.315406 -4.066809 33.79378 64.623695 -24.490644 -101.547841 -32.232782 48.301752 -139.819812 -1.259478 57.383667 -0.0 -2.866402 -9.800616 -34.681197 69.479617 54.948143 -89.2157
0.40930000000000005 63.4637 -0.0262 -170.434654 -37.287554 -178.707782 1.226311 -7.309025 9.551235 -0.691876 2.461854 0.302443 10.677977 1.119427 92.147999 -11.925417 1.735838 -79.00179 -3.209669 -0.363452 12.917625 13.3824 3.734632 31.061112 -76.534556 65.933659 84.94751 -82.431274 45.492522 79.041322 -157.789223 -13.017107 -95.662854 -3.345053 -17.26441 -13.456077 103.236115 -48.964733 38.44455 173.180324 -46.544548 127.76004 165.89779 -69.050307 126.957325 -171.846417 3.150381 137.931839 -89.1531 59.867533 81.386888 -166.635728 -1.813676 150.28207 13.203833 -3.542317 21.302978 -20.585278 -24.953945 -28.583674 -156.56982 6.680307 -160.757824 -31.706922 -56.282577 3.917843 149.745338 -3.516269 -162.781381 -92.744197 87.649463 99.058563 46.520093 -38.479334 158.779683 -162.721671 -52.430461 -142.841871 167.938068 -2.147519 -99.466856 93.720356 14.001278 -33.12616 148.516049 -20.788328 -125.59183 -23.959852 15.302935 -18.119662 151.411775 -66.825405 -165.613507 -90.018847 -65.944293 -71.583899 -7.548947 2.522343 7.075523 172.837833 -7.023225 -174.533064 17.662392 -6.3516 25.212806 135.175481 -7.897103 173.658995 67.38191 52.423178 89.992969 -105.070402 56.863592 8.657284 51.51146 14.627837 90.341405 82.889358 25.661674 -159.430368 -1.814762 -10.403927 1.968435 4.828173 -29.59579 2.472337 -20.143741 38.940557 -28.010468 -146.505451 -72.848255 -29.31898
0.66 62.2787 -0.2353 -170.64234 -38.949245 179.396037 -3.714705 -1.572399 -67.088933 7.010329 -5.074755 78.59679 10.547956 15.117547 -98.40946 22.338327 -3.473738 102.149504 23.541778 7.06194 32.989896 -0.480956 0.076427 -18.058167 1.810676 38.191456 7.41964 103.299449 -60.51808 72.039482 -62.212898 10.249243 147.568417 34.558823 -60.43912 17.750307 -90.654293 46.644688 50.034944 -143.644058 -8.815862 106.651401 -135.617466 36.146865 108.880984 -35.517038 3.266066 -31.236459 8.415044 -17.993737 14.938884 165.706094 16.344529 177.552088 -22.433818 2.163723 -8.262221 21.929684 4.505964 26.806604 -151.598974 50.134888 -169.807302 -165.271849 28.360345 -140.445755 161.772573 -4.98373 -160.069052 10.806999 0.356721 3.99939 -42.951604 3.658571 156.43486 163.928656 33.246858 -139.64275 -2.689099 1.69173 -1.324049 149.91606 -29.601567 -118.10443 -6.870397 3.710461 -4.549979 87.141684 64.510518 -41.976043 160.136635 6.821141 -140.3621 -11.025951 -17.904625 2.967096 155.745018 -41.407726 162.917613 -45.527641 81.061998 48.188337 138.33621 24.699658 129.513142 -16.522148 -5.548385 11.382153 -121.294793 74.754826 -48.196445 151.248761 41.00489 -0.0 13.544867 59.54231 59.338467 -149.250578 12.605273 89.27112 46.444144 13.659571 22.145072 -81.147115 -34.07047 -162.976648 -48.897423 -50.523113 113.805297 -27.399401 -20.105241 14.491365
0.4594 59.396 0.5506 -170.994949 -37.442285 179.537788 -7.095886 -1.50176 -0.484004 4.788958 -5.778201 12.567773 5.3344 10.141446 -54.872159 18.125049 -12.381512 60.296092 11.692596 4.293102 40.211339 0.279942 0.052966 21.427732 0.578636 0.053084 -3.343263 35.468956 -7.588514 15.47408 -116.807186 -43.469128 84.768878 142.433505 -56.226017 115.587544 71.368997 -69.581104 29.133725 -19.613328 20.629289 -21.214185 13.550431 -43.517674 -18.309952 -19.683397 33.019165 65.483227 -149.209195 22.746494 126.684401 97.236331 -65.046565 58.489277 -81.067899 -68.685544 -93.294246 3.52335 54.841174 33.876031 -151.292882 22.034389 -162.226548 -0.460867 -23.20948 -28.616836 150.017204 21.465194 -151.855175 134.623519 77.260303 -133.77897 7.078334 -47.210277 153.948912 177.909535 -9.644632 -138.978431 4.838726 -15.025989 -3.308034 92.344482 -66.655748 178.955239 12.502198 29.437677 -15.941244 177.308822 19.199548 -112.404994 -1.333592 0.544412 -11.21495 10.743413 29.174689 8.457077 96.203076 -61.980157 97.321494 64.8998 -44.780669 125.776648 97.431623 -30.551265 75.128839 -102.289757 41.963269 43.773034 -162.397812 77.683219 -17.990433 162.160014 36.64605 17.539149 61.932061 50.665909 40.249251 81.84521 79.09997 -166.069283 151.71328 64.195536 30.868886 -175.76688 8.537606 -143.340472 -80.458913 -71.804813 -173.027032 -54.182233 -85.70068 -143.209859
-0.1784 62.11879999999999 2.6286 -170.719649 -38.730837 178.461392 -2.358073 -2.888864 -180.0 -1.957116 2.749948 -167.17624 3.559164 12.695812 -107.874915 30.554638 8.117475 97.054288 5.220119 2.07112 43.259229 7.318866 2.296845 34.806196 -5.949042 -37.522768 -20.41085 -140.695662 1.683766 166.884626 -176.385423 -65.74933 -69.767627 -7.887219 14.544916 -11.693933 -77.00397 43.456728 41.767342 -120.444723 -46.794292 80.088042 -161.943104 -78.818836 132.671762 124.850865 -75.864246 8.653448 -128.498789 17.759987 129.29241 -10.427495 -60.642757 -75.122666 -66.516052 58.941034 97.303273 131.499378 46.583825 -109.681382 143.7951 69.736905 -126.703095 -57.967115 82.618028 68.556916 -13.875685 -32.374945 -1.679282 82.737515 63.472709 -94.642652 0.632731 -57.332603 -103.120564 8.599494 -9.035472 14.480616 -176.552507 6.271286 -79.934396 -97.237391 -62.206795 -112.315861 144.738883 -14.34781 -109.501504 53.068074 -70.936656 137.742199 167.688158 -4.425396 -156.634932 139.384309 -0.164299 -160.648213 111.161973 23.424691 -128.980798 152.59469 -77.615111 179.314772 3.192823 42.984231 -16.783111 2.473266 10.67079 -102.454798 -160.286655 71.417276 -12.435623 153.545286 33.337545 -52.371706 -64.407897 43.193558 -152.740741 39.093347 39.323335 -145.064642 -129.920885 66.667263 -29.038527 149.508125 9.499765 74.342918 86.572944 39.339599 1.016299 -87.312005 56.961272 -8.60304
-1.5099 62.7344 4.8049 -169.435052 -43.349195 177.150079 0.472627 2.36168 -0.0 -0.193348 -10.969741 12.417536 18.054069 7.142926 105.603151 -23.105855 28.457827 -111.418079 7.546979 0.576155 8.718754 3.847715 -0.437259 -12.96194 -153.467732 42.898173 158.868747 -25.278867 41.914578 17.596239 -171.199446 -8.282964 -65.225667 -7.961044 9.490745 -12.156259 -103.070978 39.445214 62.016574 132.466675 -31.135558 26.787571 -146.108791 -23.860936 143.441904 -12.307199 -73.901691 -89.239146 3.061853 23.662993 15.509884 -93.592198 71.825463 18.776454 -101.671795 6.084543 154.49585 -65.966684 -40.606728 -148.961381 -36.500986 6.938142 -6.828616 -82.152414 -16.612859 -176.071712 15.540212 40.356016 -27.214499 -173.956511 -13.846357 -170.788899 -63.155319 -75.810867 77.530738 169.672827 13.50351 -131.872262 -32.621544 -27.21754 -25.65624 23.848006 12.570351 48.569259 148.477811 -3.628959 -91.478355 10.31586 22.642377 -23.204897 -45.08004 78.013772 60.55117 61.672573 -2.259877 26.537697 9.616417 -8.182272 -33.440817 153.021015 0.75768 179.924925 74.603175 -64.476857 89.385524 -40.541399 -61.013575 -79.076041 104.474874 44.625146 31.196225 -134.649454 16.381198 -0.0 51.75527 50.087117 -126.998003 -64.137541 -60.234741 36.276043 -82.695176 32.918097 -52.16514 104.766923 -6.618518 -115.792219 -97.435292 -54.08747 -125.114791 -97.869439 -31.353304 179.280869
-4.5309 64.0775 7.481400000000001 -169.40356 -46.465073 178.693096 0.080445 -1.799092 83.486849 -9.903373 0.121999 -73.331568 8.125966 13.966101 164.952223 -0.530818 41.102495 -170.251208 3.095586 -0.504222 -18.498372 -5.610569 2.167747 -42.223731 -8.065226 36.247831 3.706605 -175.633514 -35.782887 148.074573 -110.372444 65.57159 -124.945706 -2.129889 13.218005 -18.198224 162.213506 -22.825724 89.424178 -158.50173 -71.151202 -159.143934 -167.692259 -15.719334 128.433246 -35.713278 69.166641 13.521266 -83.951965 36.893752 75.271248 44.70429 34.121952 -52.833505 72.23253 -16.943976 42.806994 -65.068944 -10.360278 10.800634 14.003806 40.1845 23.912083 -36.248337 -20.86628 74.5189 11.65215 32.702736 -20.756795 -13.290497 -78.419989 -20.400902 14.717432 11.735102 -93.353582 4.017343 -23.641067 4.964688 -176.612291 -11.545527 -70.454696 -64.149888 -40.741666 -97.185457 153.273537 -0.495723 -94.266548 -6.568743 -31.480715 -32.729561 17.216665 -35.860276 56.716592 -92.357254 8.857284 -57.275159 73.642948 -79.801687 89.131999 -27.286717 31.418399 -11.450799 -37.765196 5.070358 -13.269396 -89.940077 30.305473 119.874366 8.365231 15.534281 -0.0 -28.463974 -50.585847 38.900332 72.118964 17.771839 58.32064 -105.324243 3.877782 178.598967 16.710693 -0.026624 29.880262 -62.643488 -31.778045 21.045361 82.213113 23.090482 -118.918787 -97.048874 -69.46161 -16.592609
